<?xml version="1.0" encoding="utf-8"?>
<!-- Generator: Adobe Illustrator 18.1.1, SVG Export Plug-In . SVG Version: 6.00 Build 0)  -->
<!DOCTYPE svg PUBLIC "-//W3C//DTD SVG 1.1//EN" "http://www.w3.org/Graphics/SVG/1.1/DTD/svg11.dtd">
<svg version="1.1" id="Layer_1" xmlns="http://www.w3.org/2000/svg" xmlns:xlink="http://www.w3.org/1999/xlink" x="0px" y="0px"
	 viewBox="0 -10 300 1080">
<g id="bgd">
</g>
<g id="hex" display="none">
</g>
<g id="joiners" display="none">
</g>
<g>
	<polygon fill="#FFFFFF" points="386.5,657.3 386.5,739.5 459.2,780.6 532.3,739.5 532.3,657.3 459.2,616.2 	"/>
	<polygon fill="#FFFFFF" points="52.8,652.2 52.8,734.2 125.7,775.5 198.5,734.2 198.5,652.2 125.7,611.1 	"/>
	<polygon fill="#FFFFFF" points="1041.6,654.4 1041.6,736.8 1114.5,777.9 1187.4,736.8 1187.4,654.4 1114.5,613.5 	"/>
	<polygon fill="#FFFFFF" points="718.6,650.3 718.6,732.6 791.4,773.7 864.3,732.6 864.3,650.3 791.4,609.2 	"/>
	<polygon fill="#FFFFFF" points="878.2,372.3 878.2,454.4 951.1,495.5 1024,454.4 1024,372.3 951.1,331 	"/>
	<polygon fill="#FFFFFF" points="469.7,515.3 469.7,597.5 542.6,638.6 615.5,597.5 615.5,515.3 542.6,474.2 	"/>
	<polygon fill="#FFFFFF" points="697.4,454.9 697.4,372.7 624.5,331.6 551.6,372.7 551.6,454.9 624.5,496 	"/>
	<polygon fill="#FFFFFF" points="364.7,456.6 364.7,374.3 291.9,333.2 219,374.3 219,456.6 291.9,497.7 	"/>
	<polygon fill="#FFFFFF" points="-439.6,374 -439.6,456.2 -366.8,497.3 -293.9,456.2 -293.9,374 -366.8,332.9 	"/>
	<polygon fill="#FFFFFF" points="1851.3,454.4 1851.3,372.1 1778.4,331 1705.5,372.1 1705.5,454.4 1778.4,495.5 	"/>
	<polygon fill="#FFFFFF" points="35,456.2 35,374 -37.9,332.9 -110.8,374 -110.8,456.2 -37.9,497.3 	"/>
	<polygon fill="#FFFFFF" points="-521.7,512.9 -521.7,595.1 -448.8,636.2 -376,595.1 -376,512.9 -448.8,471.8 	"/>
	<polygon fill="#FFFFFF" points="-275.7,657.3 -275.7,739.5 -203,780.6 -130.1,739.5 -130.1,657.3 -203,616.2 	"/>
	<polygon fill="#FFFFFF" points="1948.5,515.8 1948.5,598 2021.4,639.2 2094.3,598 2094.3,515.8 2021.4,474.7 	"/>
	<polygon fill="#FFFFFF" points="1293.3,511.1 1293.3,593.3 1366.1,634.4 1439,593.3 1439,511.1 1366.1,469.9 	"/>
	<polygon fill="#FFFFFF" points="1858,669.6 1858,751.8 1930.9,792.9 2003.8,751.8 2003.8,669.6 1930.9,628.5 	"/>
	<polygon fill="#FFFFFF" points="1622.5,510.5 1622.5,592.7 1695.4,633.8 1768.2,592.7 1768.2,510.5 1695.4,469.4 	"/>
	<polygon fill="#FFFFFF" points="1211.2,372.3 1211.2,454.4 1284.1,495.5 1356.9,454.4 1356.9,372.3 1284.1,331 	"/>
	<path fill="#FFFFFF" d="M-736,289v628h2850V289H-736z M1702.7,370.5l75.9-42.8l75.9,42.8v85.7l-75.9,42.8l-75.9-42.8V370.5z
		 M548.6,371l75.9-42.8l75.9,42.8v85.5l-75.9,42.8l-75.9-42.8V371z M374.3,375.1c0-4.4,3.8-8.1,8.3-8.1c4.5,0,8.3,3.7,8.3,8.1
		c0,3.9-2.8,7.2-6.8,7.9v76c3.8,0.7,6.8,3.9,6.8,7.9c0,1.1-0.2,2.2-0.8,3.3l52.4,28.6c1.5-3.9,5.4-6.6,10-6.6
		c4.9,0,8.8,3.1,10.1,7.3l56.5-30.1c-0.2-0.7-0.4-1.7-0.4-2.6c0-4.4,3.8-8.1,8.3-8.1c4.5,0,8.3,3.7,8.3,8.1s-3.8,8.1-8.3,8.1
		c-2.6,0-4.9-1.1-6.4-2.9l-57.5,30.6c0,0,0,0,0,0.2c0,5.5-4.3,9.9-9.8,10.5v70.1c3.8,0.7,6.8,3.9,6.8,7.9c0,4.4-3.8,8.1-8.3,8.1
		c-2.4,0-4.7-1.1-6.2-2.8l-67.4,38c1.3,3.7-0.2,7.7-3.6,9.5c-3.9,2.2-9,0.9-11.3-2.9c-2.3-3.9-0.9-8.8,3-11c3.6-2,7.9-1.1,10.3,1.8
		l67.4-38c-0.4-0.9-0.6-1.7-0.6-2.8c0-3.9,2.8-7.2,6.8-7.9v-70.1c-5.1-0.9-8.8-5.1-8.8-10.3c0-0.4,0-0.6,0.2-0.9l-53.3-29.2
		c-1.5,1.5-3.6,2.4-5.8,2.4c-2.4,0-4.7-1.1-6.2-2.8l-55,31.2c0,0.2,0,0.6,0,0.7c0,4.4-3.8,8.1-8.3,8.1s-8.3-3.7-8.3-8.1
		c0-4.4,3.8-8.1,8.3-8.1c3.2,0,6,1.8,7.3,4.4l54.5-30.8c-0.4-0.9-0.6-1.8-0.6-2.8c0-3.9,2.8-7.2,6.8-7.9v-76
		C377.3,382.2,374.3,379.1,374.3,375.1z M216,372.7l75.9-42.8l75.9,42.8v85.5L291.9,501L216,458.2L216,372.7L216,372.7z
		 M-113.8,372.3l75.9-42.8L38,372.3v85.5l-75.9,42.8l-75.9-42.8V372.3L-113.8,372.3z M-472.7,653.8c-4.5,0-8.3-3.7-8.3-8.1
		c0-1.3,0.4-2.4,0.8-3.5l-54.1-30.8c-1.5,1.7-3.8,2.8-6.2,2.8c-2.6,0-4.9-1.1-6.4-2.9l-58.4,31c0.4,0.9,0.6,2,0.6,2.9
		c0,5.3-3.9,9.5-9.2,10.3v66.8c3.8,0.7,6.8,3.9,6.8,7.9c0,0.9-0.2,1.8-0.6,2.6l54.3,30.5c0.8-0.9,1.5-1.8,2.6-2.4
		c3.9-2.2,9-0.9,11.3,2.9c2.3,3.9,0.9,8.8-3,11c-3.9,2.2-9,0.9-11.3-2.9c-1.1-1.8-1.3-3.9-0.9-5.9l-54.3-30.3
		c-1.5,1.7-3.8,2.9-6.2,2.9s-4.7-1.1-6.2-2.8l-67.4,37.8c1.3,3.7-0.2,7.7-3.6,9.5c-3.9,2.2-9,0.9-11.3-2.9c-2.3-3.9-0.9-8.8,3-11
		c3.6-2,7.9-1.1,10.3,1.8l67.4-37.8c-0.4-0.9-0.6-1.7-0.6-2.8c0-3.9,2.8-7.2,6.8-7.9v-66.8c-5.3-0.7-9.2-5.1-9.2-10.3
		c0-1.5,0.4-2.8,0.8-4l-53.5-29.4c-1.5,1.5-3.6,2.4-5.8,2.4c-4.5,0-8.3-3.7-8.3-8.1c0-3.9,2.8-7.2,6.8-7.9v-76
		c-3.8-0.7-6.8-3.9-6.8-7.9c0-4.4,3.8-8.1,8.3-8.1c4.5,0,8.3,3.7,8.3,8.1c0,3.9-2.8,7.2-6.8,7.9v76c3.8,0.7,6.8,3.9,6.8,7.9
		c0,1.1-0.2,2.2-0.8,3.3l53.5,29.4c1.9-2.4,4.9-3.9,8.3-3.9c3.8,0,7.1,1.8,9,4.8l58-31c-0.2-0.7-0.4-1.7-0.4-2.6
		c0-3.9,2.8-7.2,6.8-7.9v-76c-3.8-0.7-6.8-3.9-6.8-7.9c0-4.4,3.8-8.1,8.3-8.1c4.5,0,8.3,3.7,8.3,8.1c0,3.9-2.8,7.2-6.8,7.9v76
		c3.8,0.7,6.8,3.9,6.8,7.9c0,0.9-0.2,1.8-0.6,2.8l54.5,30.8c1.5-1.3,3.4-2.2,5.6-2.2c4.5,0,8.3,3.7,8.3,8.1
		S-468.2,653.8-472.7,653.8z M-373.2,596.8l-75.9,42.8l-75.9-42.8v-85.5l75.9-42.8l75.9,42.8V596.8z M-442.6,457.8v-85.5l75.9-42.8
		l75.9,42.8v85.5l-75.9,42.8L-442.6,457.8z M-127.1,741.2l-75.9,42.8l-0.8-0.4l-75.1-42.4v-85.5l75.9-42.8l75.9,42.8V741.2
		L-127.1,741.2z M-191.7,505.2c0,5.5-4.3,9.9-9.8,10.5v70.1c3.8,0.7,6.8,3.9,6.8,7.9c0,0.9-0.2,1.8-0.6,2.6l54.3,30.5
		c0.8-0.9,1.5-1.8,2.6-2.4c3.9-2.2,9-0.9,11.3,2.9s0.9,8.8-3,11c-3.9,2.2-9,0.9-11.3-2.9c-1.1-1.8-1.3-3.9-0.9-5.9l-54.7-30.6
		c-1.5,1.7-3.8,2.9-6.2,2.9s-4.7-1.1-6.2-2.8l-67.4,38c1.3,3.5-0.2,7.7-3.6,9.5c-3.9,2.2-9,0.9-11.3-2.9c-2.3-3.9-0.9-8.8,3-11
		c3.6-2,7.9-1.1,10.3,1.8l67.4-38c-0.4-0.9-0.6-1.7-0.6-2.8c0-3.9,2.8-7.2,6.8-7.9v-70.1c-5.1-0.9-8.8-5.1-8.8-10.3
		c0-0.4,0-0.6,0-0.9l-53.3-29.2c-1.5,1.5-3.6,2.4-5.8,2.4c-2.4,0-4.7-1.1-6.2-2.8l-55,31.2c0,0.2,0,0.6,0,0.7c0,4.4-3.8,8.1-8.3,8.1
		c-4.5,0-8.3-3.7-8.3-8.1c0-4.4,3.8-8.1,8.3-8.1c3.2,0,6,1.8,7.3,4.4l54.5-30.8c-0.4-0.9-0.6-1.8-0.6-2.8c0-3.9,2.8-7.2,6.8-7.9v-76
		c-3.8-0.7-6.8-3.9-6.8-7.9c0-4.4,3.8-8.1,8.3-8.1c4.5,0,8.3,3.7,8.3,8.1c0,3.9-2.8,7.2-6.8,7.9v76c3.8,0.7,6.8,3.9,6.8,7.9
		c0,1.1-0.2,2.2-0.8,3.3l52.4,28.6c1.5-3.9,5.4-6.6,10-6.6c4.9,0,8.8,3.1,10.1,7.3l56.5-30.1c-0.2-0.7-0.4-1.7-0.4-2.6
		c0-3.9,2.8-7.2,6.8-7.9v-76c-3.8-0.7-6.8-3.9-6.8-7.9c0-4.4,3.8-8.1,8.3-8.1c4.5,0,8.3,3.7,8.3,8.1c0,3.9-2.8,7.2-6.8,7.9v76
		c3.8,0.7,6.8,3.9,6.8,7.9c0,0.9-0.2,1.8-0.6,2.8l54.5,30.8c1.5-1.3,3.4-2.2,5.6-2.2c4.5,0,8.3,3.7,8.3,8.1s-3.8,8.1-8.3,8.1
		s-8.3-3.7-8.3-8.1c0-1.3,0.4-2.4,0.8-3.5l-54.1-30.6c-1.5,1.7-3.8,2.8-6.2,2.8c-2.6,0-4.9-1.1-6.4-2.9L-191.7,505.2L-191.7,505.2z
		 M101.1,794.4c-4.5,0-8.3-3.7-8.3-8.1c0-1.3,0.4-2.4,0.8-3.5L39.5,752c-1.5,1.7-3.8,2.8-6.2,2.8c-2.6,0-4.9-1.1-6.4-2.9l-58.2,31
		c0.4,0.9,0.6,2,0.6,2.9c0,5.3-3.9,9.5-9.2,10.3v66.8c3.8,0.7,6.8,3.9,6.8,7.9c0,4.4-3.8,8.1-8.3,8.1s-8.3-3.7-8.3-8.1
		c0-3.9,2.8-7.2,6.8-7.9v-66.8c-5.3-0.7-9.2-5.1-9.2-10.3c0-1.5,0.4-2.8,0.8-4l-53.5-29.4c-1.5,1.5-3.6,2.4-5.8,2.4
		c-4.5,0-8.3-3.7-8.3-8.1c0-3.9,2.8-7.2,6.8-7.9v-76c-3.8-0.7-6.8-3.9-6.8-7.9c0-4.4,3.8-8.1,8.3-8.1s8.3,3.7,8.3,8.1
		c0,3.9-2.8,7.2-6.8,7.9v76c3.8,0.7,6.8,3.9,6.8,7.9c0,1.1-0.2,2.2-0.8,3.3l53.5,29.4c1.9-2.4,4.9-3.9,8.3-3.9c3.8,0,7.1,2,9,4.8
		l58-31c-0.2-0.7-0.4-1.7-0.4-2.6c0-3.9,2.8-7.2,6.8-7.9v-76c-3.8-0.7-6.8-3.9-6.8-7.9c0-4.4,3.8-8.1,8.3-8.1s8.3,3.7,8.3,8.1
		c0,3.9-2.8,7.2-6.8,7.9v76c3.8,0.7,6.8,3.9,6.8,7.9c0,0.9-0.2,1.8-0.6,2.8l54.5,30.8c1.5-1.3,3.4-2.2,5.6-2.2
		c4.5,0,8.3,3.7,8.3,8.1S105.8,794.4,101.1,794.4z M201.5,736.1l-75.9,42.8l-75.9-42.8v-85.5l75.9-42.8l75.9,42.8V736.1L201.5,736.1
		z M137.1,501.3c0,5.5-4.3,9.9-9.8,10.5v70.1c3.8,0.7,6.8,3.9,6.8,7.9c0,0.9-0.2,1.8-0.6,2.6l54.3,30.5c0.8-0.9,1.5-1.8,2.6-2.4
		c3.9-2.2,9-0.9,11.3,2.9c2.3,3.9,0.9,8.8-3,11c-3.9,2.2-9,0.9-11.3-2.9c-1.1-1.8-1.3-3.9-0.9-5.9l-54.7-30.6
		c-1.5,1.7-3.8,2.9-6.2,2.9s-4.7-1.1-6.2-2.9l-67.4,38c1.3,3.5-0.2,7.7-3.6,9.5c-3.9,2.2-9,0.9-11.3-2.9c-2.3-3.9-0.9-8.8,3-11
		c3.6-2,7.9-1.1,10.3,1.8l67.4-38c-0.4-0.9-0.6-1.7-0.6-2.8c0-3.9,2.8-7.2,6.8-7.9v-70.1c-5.1-0.9-8.8-5.1-8.8-10.3
		c0-0.4,0-0.6,0.2-0.9l-53.3-29.2c-1.5,1.5-3.6,2.4-5.8,2.4c-2.4,0-4.7-1.1-6.2-2.8l-55,31.2c0,0.2,0,0.6,0,0.7
		c0,4.4-3.8,8.1-8.3,8.1s-8.3-3.7-8.3-8.1s3.8-8.1,8.3-8.1c3.2,0,6,1.8,7.3,4.4l54.5-30.8c-0.4-0.9-0.6-1.8-0.6-2.8
		c0-3.9,2.8-7.2,6.8-7.9v-76c-3.8-0.7-6.8-3.9-6.8-7.9c0-4.4,3.8-8.1,8.3-8.1s8.3,3.7,8.3,8.1c0,3.9-2.8,7.2-6.8,7.9v76
		c3.8,0.7,6.8,3.9,6.8,7.9c0,1.1-0.2,2.2-0.8,3.3l52.2,28.6c1.5-3.9,5.4-6.6,10-6.6c4.9,0,8.8,3.1,10.1,7.3l56.5-30.1
		c-0.2-0.7-0.4-1.7-0.4-2.6c0-3.9,2.8-7.2,6.8-7.9v-76c-3.8-0.7-6.8-3.9-6.8-7.9c0-4.4,3.8-8.1,8.3-8.1s8.3,3.7,8.3,8.1
		c0,3.9-2.8,7.2-6.8,7.9v76c3.8,0.7,6.8,3.9,6.8,7.9c0,0.9-0.2,1.8-0.6,2.8l54.5,30.8c1.5-1.3,3.4-2.2,5.6-2.2
		c4.5,0,8.3,3.7,8.3,8.1c0,4.4-3.8,8.1-8.3,8.1c-4.5,0-8.3-3.7-8.3-8.1c0-1.3,0.4-2.4,0.8-3.5L207,470.9c-1.5,1.7-3.8,2.8-6.2,2.8
		c-2.6,0-4.9-1.1-6.4-2.9L137.1,501.3L137.1,501.3z M432.7,799c-4.5,0-8.3-3.7-8.3-8.1c0-1.3,0.4-2.4,0.8-3.5l-53.9-30.6
		c-1.5,1.7-3.8,2.8-6.2,2.8c-2.6,0-4.9-1.1-6.4-2.9l-58.2,31c0.4,0.9,0.6,2,0.6,2.9c0,5.3-3.9,9.5-9.2,10.3v66.8
		c3.8,0.7,6.8,3.9,6.8,7.9c0,4.4-3.8,8.1-8.3,8.1c-4.5,0-8.3-3.7-8.3-8.1c0-3.9,2.8-7.2,6.8-7.9v-66.8c-5.3-0.7-9.2-5.1-9.2-10.3
		c0-1.5,0.4-2.8,0.8-4l-53.5-29.4c-1.5,1.5-3.6,2.4-5.8,2.4c-4.5,0-8.3-3.7-8.3-8.1c0-3.9,2.8-7.2,6.8-7.9v-76
		c-3.8-0.7-6.8-3.9-6.8-7.9c0-4.4,3.8-8.1,8.3-8.1s8.3,3.7,8.3,8.1c0,3.9-2.8,7.2-6.8,7.9v76c3.8,0.7,6.8,3.9,6.8,7.9
		c0,1.1-0.2,2.2-0.8,3.3l53.5,29.4c1.9-2.4,4.9-3.9,8.3-3.9c3.8,0,7.1,2,9,4.8l58-31c-0.2-0.7-0.4-1.7-0.4-2.6
		c0-3.9,2.8-7.2,6.8-7.9v-76c-3.8-0.7-6.8-3.9-6.8-7.9c0-4.4,3.8-8.1,8.3-8.1c4.5,0,8.3,3.7,8.3,8.1c0,3.9-2.8,7.2-6.8,7.9v76
		c3.8,0.7,6.8,3.9,6.8,7.9c0,0.9-0.2,1.8-0.6,2.8l54.5,30.8c1.5-1.3,3.4-2.2,5.6-2.2c4.5,0,8.3,3.7,8.3,8.1
		C441,795.5,437.4,799,432.7,799z M535.1,741.2l-75.9,42.8l-0.8-0.4l-75.1-42.4v-85.5l75.9-42.8l75.9,42.8V741.2L535.1,741.2z
		 M466.7,599.1v-85.5l75.9-42.8l75.9,42.8v85.5l-75.9,42.8L466.7,599.1z M766.8,795.7c-4.5,0-8.3-3.7-8.3-8.1c0-1.3,0.4-2.4,0.8-3.5
		l-53.9-30.6c-1.5,1.7-3.8,2.8-6.2,2.8c-2.6,0-4.9-1.1-6.4-2.9l-58.4,31c0.4,0.9,0.6,2,0.6,2.9c0,5.3-3.9,9.5-9.2,10.3v66.8
		c3.8,0.7,6.8,3.9,6.8,7.9c0,4.4-3.8,8.1-8.3,8.1c-4.5,0-8.3-3.7-8.3-8.1c0-3.9,2.8-7.2,6.8-7.9v-66.8c-5.3-0.7-9.2-5.1-9.2-10.3
		c0-1.5,0.4-2.8,0.8-4l-53.7-29.4c-1.5,1.5-3.6,2.4-5.8,2.4c-4.5,0-8.3-3.7-8.3-8.1c0-3.9,2.8-7.2,6.8-7.9v-76
		c-3.8-0.7-6.8-3.9-6.8-7.9c0-4.4,3.8-8.1,8.3-8.1s8.3,3.7,8.3,8.1c0,3.9-2.8,7.2-6.8,7.9v76c3.8,0.7,6.8,3.9,6.8,7.9
		c0,1.1-0.2,2.2-0.8,3.3l53.5,29.4c1.9-2.4,4.9-3.9,8.3-3.9c3.8,0,7.1,1.8,9,4.8l58-31c-0.2-0.7-0.4-1.7-0.4-2.6
		c0-3.9,2.8-7.2,6.8-7.9v-76c-3.8-0.7-6.8-3.9-6.8-7.9c0-4.4,3.8-8.1,8.3-8.1c4.5,0,8.3,3.7,8.3,8.1c0,3.9-2.8,7.2-6.8,7.9v76
		c3.8,0.7,6.8,3.9,6.8,7.9c0,0.9-0.2,1.8-0.6,2.8l54.5,30.8c1.5-1.3,3.4-2.2,5.6-2.2c4.5,0,8.3,3.7,8.3,8.1
		C775.1,792.2,771.5,795.7,766.8,795.7z M867.3,734.2L791.4,777l-75.9-42.8v-85.5l75.9-42.8l75.9,42.8V734.2z M930.1,511.6
		c-4.5,0-8.3-3.7-8.3-8.1c0-0.2,0-0.6,0-0.7l-55-31.2c-1.5,1.7-3.8,2.8-6.2,2.8c-2.3,0-4.3-0.9-5.8-2.4l-53.3,29.2
		c0,0.4,0,0.6,0,0.9c0,5.1-3.8,9.4-8.8,10.3v70.1c3.8,0.7,6.8,3.9,6.8,7.9c0,0.9-0.2,1.8-0.6,2.8l67.4,38c2.4-2.9,6.9-3.7,10.3-1.8
		c3.9,2.2,5.3,7.2,3,11c-2.3,3.9-7.3,5.1-11.3,2.9c-3.6-2-4.9-6.1-3.6-9.5l-67.2-38c-1.5,1.7-3.8,2.8-6.2,2.8
		c-2.4,0-4.7-1.1-6.2-2.9l-54.7,30.6c0.6,1.8,0.2,4-0.9,5.9c-2.3,3.9-7.3,5.1-11.3,2.9c-3.9-2.2-5.3-7.2-3-11
		c2.3-3.9,7.3-5.1,11.3-2.9c1.1,0.6,1.9,1.5,2.6,2.4l54.3-30.5c-0.4-0.9-0.6-1.7-0.6-2.6c0-3.9,2.8-7.2,6.8-7.9v-70.1
		c-5.4-0.6-9.8-5-9.8-10.5c0,0,0,0,0-0.2l-57.5-30.6c-1.5,1.8-3.8,2.9-6.4,2.9c-2.4,0-4.7-1.1-6.2-2.8l-54.1,30.8
		c0.6,1.1,0.8,2.2,0.8,3.5c0,4.4-3.8,8.1-8.3,8.1c-4.5,0-8.3-3.7-8.3-8.1s3.8-8.1,8.3-8.1c2.3,0,4.1,0.9,5.6,2.2l54.5-30.8
		c-0.4-0.9-0.6-1.8-0.6-2.8c0-3.9,2.8-7.2,6.8-7.9v-76c-3.8-0.7-6.8-3.9-6.8-7.9c0-4.4,3.8-8.1,8.3-8.1c4.5,0,8.3,3.7,8.3,8.1
		c0,3.9-2.8,7.2-6.8,7.9v76c3.8,0.7,6.8,3.9,6.8,7.9c0,0.9-0.2,1.7-0.4,2.6l56.5,30.1c1.3-4.2,5.4-7.3,10.1-7.3
		c4.5,0,8.5,2.8,10,6.6l52.4-28.6c-0.4-0.9-0.8-2-0.8-3.3c0-3.9,2.8-7.2,6.8-7.9v-76c-3.8-0.7-6.8-3.9-6.8-7.9
		c0-4.4,3.8-8.1,8.3-8.1s8.3,3.7,8.3,8.1c0,3.9-2.8,7.2-6.8,7.9v76c3.8,0.7,6.8,3.9,6.8,7.9c0,0.9-0.2,1.8-0.6,2.8l54.5,30.8
		c1.3-2.6,4.1-4.4,7.3-4.4c4.5,0,8.3,3.7,8.3,8.1C938.3,507.9,934.6,511.6,930.1,511.6z M875.2,456.2v-85.5l75.9-42.8l75.9,42.8
		v85.5l-75.9,42.8L875.2,456.2z M1190.2,738.4l-75.9,42.8l-75.9-42.8v-85.5l75.9-42.8l75.9,42.8V738.4z M1257,514
		c-4.5,0-8.3-3.7-8.3-8.1c0-1.3,0.4-2.4,0.8-3.5l-54.1-30.8c-1.5,1.7-3.8,2.8-6.2,2.8c-2.6,0-4.9-1.1-6.4-2.9l-57.5,30.6
		c0,0,0,0,0,0.2c0,5.5-4.3,9.9-9.8,10.5v70.1c3.8,0.7,6.8,3.9,6.8,7.9c0,0.9-0.2,1.8-0.6,2.6l54.3,30.5c0.8-0.9,1.5-1.8,2.6-2.4
		c3.9-2.2,9-0.9,11.3,2.9c2.3,3.9,0.9,8.8-3,11c-3.9,2.2-9,0.9-11.3-2.9c-1.1-1.8-1.3-3.9-0.9-5.9l-54.1-30.6
		c-1.5,1.7-3.8,2.9-6.2,2.9c-2.4,0-4.7-1.1-6.2-2.8l-67.4,38c1.3,3.7-0.2,7.7-3.6,9.5c-3.9,2.2-9,0.9-11.3-2.9
		c-2.3-3.9-0.9-8.8,3-11c3.6-2,7.9-1.1,10.3,1.8l67.4-38c-0.4-0.9-0.6-1.7-0.6-2.8c0-3.9,2.8-7.2,6.8-7.9v-70.1
		c-5.1-0.9-8.8-5.1-8.8-10.3c0-0.4,0-0.6,0-0.9l-53.3-29.2c-1.5,1.5-3.6,2.4-5.8,2.4c-2.4,0-4.7-1.1-6.2-2.8l-55,31.2
		c0,0.2,0,0.6,0,0.7c0,4.4-3.8,8.1-8.3,8.1c-4.5,0-8.3-3.7-8.3-8.1s3.8-8.1,8.3-8.1c3.2,0,6,1.8,7.3,4.4l54.5-30.8
		c-0.4-0.9-0.6-1.8-0.6-2.8c0-3.9,2.8-7.2,6.8-7.9v-76c-3.8-0.7-6.8-3.9-6.8-7.9c0-4.4,3.8-8.1,8.3-8.1c4.5,0,8.3,3.7,8.3,8.1
		c0,3.9-2.8,7.2-6.8,7.9v76c3.8,0.7,6.8,3.9,6.8,7.9c0,1.1-0.2,2.2-0.8,3.3l52.4,28.6c1.5-3.9,5.4-6.6,10-6.6
		c4.9,0,8.8,3.1,10.1,7.3l56.5-30.1c-0.2-0.7-0.4-1.7-0.4-2.6c0-3.9,2.8-7.2,6.8-7.9v-76c-3.8-0.7-6.8-3.9-6.8-7.9
		c0-4.4,3.8-8.1,8.3-8.1s8.3,3.7,8.3,8.1c0,3.9-2.8,7.2-6.8,7.9v76c3.8,0.7,6.8,3.9,6.8,7.9c0,0.9-0.2,1.8-0.6,2.8l54.5,30.8
		c1.5-1.3,3.4-2.2,5.6-2.2c4.5,0,8.3,3.7,8.3,8.1C1265.3,510.5,1261.5,514,1257,514z M1208.2,456.2v-85.5l75.9-42.9l75.9,42.8v85.7
		l-75.9,42.8L1208.2,456.2z M1290.3,594.9v-85.5l75.9-42.8l75.7,42.8v85.5l-75.9,42.8L1290.3,594.9z M1671.1,652.4
		c-4.5,0-8.3-3.7-8.3-8.1c0-0.2,0-0.6,0-0.7l-55-31.2c-1.5,1.7-3.8,2.8-6.2,2.8c-2.3,0-4.3-0.9-5.8-2.4l-53.7,29.4
		c0.6,1.3,0.8,2.6,0.8,4c0,5.3-3.9,9.5-9.2,10.3v66.8c3.8,0.7,6.8,3.9,6.8,7.9c0,0.9-0.2,1.8-0.6,2.8l67.4,38
		c2.4-2.9,6.9-3.7,10.3-1.8c3.9,2.2,5.3,7.2,3,11c-2.3,3.9-7.3,5.1-11.3,2.9c-3.6-2-4.9-6.1-3.6-9.5l-67.4-38
		c-1.5,1.7-3.8,2.8-6.2,2.8c-2.4,0-4.7-1.1-6.2-2.9l-54.7,30.6c0.6,1.8,0.2,4-0.9,5.9c-2.3,3.9-7.3,5.1-11.3,2.9
		c-3.9-2.2-5.3-7.2-3-11c2.3-3.9,7.3-5.1,11.3-2.9c1.1,0.6,2.1,1.5,2.6,2.4l54.3-30.5c-0.4-0.9-0.6-1.7-0.6-2.6
		c0-3.9,2.8-7.2,6.8-7.9v-66.8c-5.3-0.7-9.2-5.1-9.2-10.3c0-1.1,0.2-2,0.6-2.9l-58.4-31c-1.5,1.8-3.8,2.9-6.4,2.9
		c-2.4,0-4.7-1.1-6.2-2.8l-54.1,30.8c0.6,1.1,0.8,2.2,0.8,3.5c0,4.4-3.8,8.1-8.3,8.1s-8.3-3.7-8.3-8.1s3.8-8.1,8.3-8.1
		c2.3,0,4.1,0.9,5.6,2.2l54.5-30.8c-0.4-0.9-0.6-1.8-0.6-2.8c0-3.9,2.8-7.2,6.8-7.9v-76c-3.8-0.7-6.8-3.9-6.8-7.9
		c0-4.4,3.8-8.1,8.3-8.1s8.3,3.7,8.3,8.1c0,3.9-2.8,7.2-6.8,7.9v76c3.8,0.7,6.8,3.9,6.8,7.9c0,0.9-0.2,1.7-0.4,2.6l58,31
		c1.9-2.9,5.3-4.8,9-4.8c3.4,0,6.4,1.5,8.3,3.9l53.5-29.4c-0.4-0.9-0.8-2-0.8-3.3c0-3.9,2.8-7.2,6.8-7.9v-76
		c-3.8-0.7-6.8-3.9-6.8-7.9c0-4.4,3.8-8.1,8.3-8.1s8.3,3.7,8.3,8.1c0,3.9-2.8,7.2-6.8,7.9v76c3.8,0.7,6.8,3.9,6.8,7.9
		c0,0.9-0.2,1.8-0.6,2.8l54.5,30.8c1.3-2.6,4.1-4.4,7.3-4.4c4.5,0,8.3,3.7,8.3,8.1C1679.4,648.9,1675.8,652.4,1671.1,652.4z
		 M1619.5,594.4v-85.5l75.9-42.8l75.9,42.8v85.5l-75.9,42.8L1619.5,594.4z M2006.8,753.5l-75.9,42.8l-75.9-42.8V668l75.9-42.8
		l75.9,42.8V753.5z M1998.7,657c-4.5,0-8.3-3.7-8.3-8.1c0-1.3,0.4-2.4,0.8-3.5l-54.1-30.8c-1.5,1.7-3.8,2.8-6.2,2.8
		c-2.6,0-4.9-1.1-6.4-2.9L1867,645c0,0,0,0,0,0.2c0,5.9-4.9,10.5-10.7,10.5s-10.7-4.8-10.7-10.5c0-0.4,0-0.6,0.2-0.9l-53.3-29.2
		c-1.5,1.5-3.6,2.4-5.8,2.4c-2.4,0-4.7-1.1-6.2-2.8l-55,31.2c0,0.2,0,0.6,0,0.7c0,4.4-3.8,8.1-8.3,8.1c-4.5,0-8.3-3.7-8.3-8.1
		s3.8-8.1,8.3-8.1c3.2,0,6,1.8,7.3,4.4l54.5-30.8c-0.4-0.9-0.6-1.7-0.6-2.8c0-3.9,2.8-7.2,6.8-7.9v-76c-3.8-0.7-6.8-3.9-6.8-7.9
		c0-4.4,3.8-8.1,8.3-8.1s8.3,3.7,8.3,8.1c0,3.9-2.8,7.2-6.8,7.9v76c3.8,0.7,6.8,3.9,6.8,7.9c0,1.1-0.2,2.2-0.8,3.3l52.2,28.6
		c1.5-3.9,5.4-6.6,10-6.6c4.9,0,8.8,3.1,10.1,7.3L1923,612c-0.2-0.7-0.4-1.7-0.4-2.6c0-3.9,2.8-7.2,6.8-7.9v-76
		c-3.8-0.7-6.8-3.9-6.8-7.9c0-4.4,3.8-8.1,8.3-8.1s8.3,3.7,8.3,8.1c0,3.9-2.8,7.2-6.8,7.9v76c3.8,0.7,6.8,3.9,6.8,7.9
		c0,0.9-0.2,1.8-0.6,2.8l54.5,30.8c1.5-1.3,3.4-2.2,5.6-2.2c4.5,0,8.3,3.7,8.3,8.1C2006.8,653.3,2003.2,657,1998.7,657z
		 M2097.3,599.7l-75.9,42.8l-75.9-42.8v-85.5l75.9-42.8l75.9,42.8V599.7z"/>
</g>
<g id="bgd_1_">
</g>
<g id="hex_1_" display="none">
</g>
</svg>
